<?xml version="1.0" encoding="UTF-8"?>
<svg xmlns="http://www.w3.org/2000/svg" xmlns:xlink="http://www.w3.org/1999/xlink" width="47px" height="42px" viewBox="0 0 47 42" version="1.1">
<g id="surface1">
<path style=" stroke:none;fill-rule:nonzero;fill:rgb(100%,100%,100%);fill-opacity:1;" d="M 47 21 C 47 22.445312 45.835938 23.625 44.386719 23.625 L 41.777344 23.625 L 41.777344 36.75 C 41.777344 39.648438 39.4375 42 36.554688 42 L 10.445312 42 C 7.5625 42 5.222656 39.648438 5.222656 36.75 L 5.222656 23.625 L 2.609375 23.625 C 1.160156 23.625 0 22.441406 0 21 C 0 20.257812 0.3125 19.53125 0.890625 19.023438 L 21.78125 0.648438 C 22.347656 0.148438 23 0 23.5 0 C 24.113281 0 24.726562 0.214844 25.21875 0.648438 L 46.109375 19.023438 C 46.6875 19.53125 47 20.257812 47 21 Z M 47 21 "/>
</g>
</svg>
